{
  "accessors": [
    {
      "bufferView": 2,
      "componentType": 5126,
      "count": 4,
      "max": [
        0.23171672224998474,
        0.0,
        0.5
      ],
      "min": [
        -0.23171672224998474,
        0.0,
        -0.5
      ],
      "type": "VEC3"
    },
    {
      "bufferView": 2,
      "byteOffset": 48,
      "componentType": 5126,
      "count": 4,
      "max": [
        0.0,
        1.0,
        -0.0
      ],
      "min": [
        0.0,
        1.0,
        -0.0
      ],
      "type": "VEC3"
    },
    {
      "bufferView": 1,
      "componentType": 5126,
      "count": 4,
      "max": [
        0.6666666865348816,
        1.0
      ],
      "min": [
        0.3333333134651184,
        0.0
      ],
      "type": "VEC2"
    },
    {
      "bufferView": 0,
      "componentType": 5125,
      "count": 6,
      "type": "SCALAR"
    },
    {
      "bufferView": 2,
      "byteOffset": 96,
      "componentType": 5126,
      "count": 8974,
      "max": [
        1.0486754179000854,
        1.1411066055297852,
        1.0486754179000854
      ],
      "min": [
        -1.0486754179000854,
        -1.0127822160720825,
        -1.0486754179000854
      ],
      "type": "VEC3"
    },
    {
      "bufferView": 2,
      "byteOffset": 107784,
      "componentType": 5126,
      "count": 8974,
      "max": [
        0.9999972581863403,
        1.0,
        0.9999971985816956
      ],
      "min": [
        -0.9999971985816956,
        -1.0,
        -0.9999972581863403
      ],
      "type": "VEC3"
    },
    {
      "bufferView": 1,
      "byteOffset": 32,
      "componentType": 5126,
      "count": 8974,
      "max": [
        0.9941799640655518,
        1.1174806356430054
      ],
      "min": [
        0.005819980055093765,
        0.005819980055093765
      ],
      "type": "VEC2"
    },
    {
      "bufferView": 0,
      "byteOffset": 24,
      "componentType": 5125,
      "count": 43200,
      "type": "SCALAR"
    },
    {
      "bufferView": 2,
      "byteOffset": 215472,
      "componentType": 5126,
      "count": 1341,
      "max": [
        0.9891605377197266,
        0.8562370538711548,
        0.9891605377197266
      ],
      "min": [
        -0.9891604781150818,
        -0.6716422438621521,
        -0.9891605377197266
      ],
      "type": "VEC3"
    },
    {
      "bufferView": 2,
      "byteOffset": 231564,
      "componentType": 5126,
      "count": 1341,
      "max": [
        0.9999895691871643,
        1.0,
        0.9999895691871643
      ],
      "min": [
        -0.9999895691871643,
        -1.0,
        -0.9999895691871643
      ],
      "type": "VEC3"
    },
    {
      "bufferView": 1,
      "byteOffset": 71824,
      "componentType": 5126,
      "count": 1341,
      "max": [
        0.4766198396682739,
        0.4766199290752411
      ],
      "min": [
        0.023380178958177567,
        0.023380178958177567
      ],
      "type": "VEC2"
    },
    {
      "bufferView": 0,
      "byteOffset": 172824,
      "componentType": 5125,
      "count": 5040,
      "type": "SCALAR"
    },
    {
      "bufferView": 2,
      "byteOffset": 247656,
      "componentType": 5126,
      "count": 204,
      "max": [
        1.1561678647994995,
        1.0154708623886108,
        0.9826624989509583
      ],
      "min": [
        -0.9993072748184204,
        -0.9854164123535156,
        -0.981024444103241
      ],
      "type": "VEC3"
    },
    {
      "bufferView": 2,
      "byteOffset": 250104,
      "componentType": 5126,
      "count": 204,
      "max": [
        0.9981689453125,
        0.9935883283615112,
        0.9961335062980652
      ],
      "min": [
        -0.99560546875,
        -0.9999560117721558,
        -0.9912404417991638
      ],
      "type": "VEC3"
    },
    {
      "bufferView": 1,
      "byteOffset": 82552,
      "componentType": 5126,
      "count": 204,
      "max": [
        1.0000001192092896,
        1.0000001192092896
      ],
      "min": [
        -1.564622067462551e-07,
        0.01912507228553295
      ],
      "type": "VEC2"
    },
    {
      "bufferView": 0,
      "byteOffset": 192984,
      "componentType": 5125,
      "count": 816,
      "type": "SCALAR"
    },
    {
      "bufferView": 2,
      "byteOffset": 252552,
      "componentType": 5126,
      "count": 1546,
      "max": [
        0.6143298149108887,
        -0.21930181980133057,
        0.9927232265472412
      ],
      "min": [
        -0.6058415174484253,
        -0.9420392513275146,
        -1.0321972370147705
      ],
      "type": "VEC3"
    },
    {
      "bufferView": 2,
      "byteOffset": 271104,
      "componentType": 5126,
      "count": 1546,
      "max": [
        0.9308947920799255,
        0.9995121359825134,
        0.9994537234306335
      ],
      "min": [
        -0.9308947920799255,
        -0.9995121359825134,
        -0.9995202422142029
      ],
      "type": "VEC3"
    },
    {
      "bufferView": 1,
      "byteOffset": 84184,
      "componentType": 5126,
      "count": 1546,
      "max": [
        1.0409085750579834,
        0.9818785190582275
      ],
      "min": [
        -0.038243118673563004,
        0.022179216146469116
      ],
      "type": "VEC2"
    },
    {
      "bufferView": 0,
      "byteOffset": 196248,
      "componentType": 5125,
      "count": 7488,
      "type": "SCALAR"
    }
  ],
  "asset": {
    "extras": {
      "author": "Brownbreadrender (https://sketchfab.com/adityasinghxd)",
      "license": "CC-BY-4.0 (http://creativecommons.org/licenses/by/4.0/)",
      "source": "https://sketchfab.com/3d-models/scented-candle-71384b2fafc84a1d86b97c87b185be42",
      "title": "Scented Candle"
    },
    "generator": "Sketchfab-12.68.0",
    "version": "2.0"
  },
  "bufferViews": [
    {
      "buffer": 0,
      "byteLength": 226200,
      "name": "floatBufferViews",
      "target": 34963
    },
    {
      "buffer": 0,
      "byteLength": 96552,
      "byteOffset": 226200,
      "byteStride": 8,
      "name": "floatBufferViews",
      "target": 34962
    },
    {
      "buffer": 0,
      "byteLength": 289656,
      "byteOffset": 322752,
      "byteStride": 12,
      "name": "floatBufferViews",
      "target": 34962
    }
  ],
  "buffers": [
    {
      "byteLength": 612408,
      "uri": "scene.bin"
    }
  ],
  "extensionsRequired": [
    "KHR_materials_pbrSpecularGlossiness"
  ],
  "extensionsUsed": [
    "KHR_materials_pbrSpecularGlossiness"
  ],
  "images": [
    {
      "uri": "textures/acn-aid-to-the-church-in-need-candle-597182_diffuse.png"
    },
    {
      "uri": "textures/acn-aid-to-the-church-in-need-candle-597182_emissive.png"
    },
    {
      "uri": "textures/BONFIRE_STICKER.002_diffuse.png"
    },
    {
      "uri": "textures/BONFIRE_STICKER.002_specularGlossiness.png"
    }
  ],
  "materials": [
    {
      "alphaMode": "BLEND",
      "doubleSided": true,
      "emissiveFactor": [
        1.0,
        1.0,
        1.0
      ],
      "emissiveTexture": {
        "index": 1
      },
      "extensions": {
        "KHR_materials_pbrSpecularGlossiness": {
          "diffuseFactor": [
            1.0,
            1.0,
            1.0,
            0.2631574947254498
          ],
          "diffuseTexture": {
            "index": 0
          },
          "glossinessFactor": 1.0,
          "specularFactor": [
            0.0,
            0.0,
            0.0
          ]
        }
      },
      "name": "acn-aid-to-the-church-in-need-candle-597182"
    },
    {
      "alphaMode": "BLEND",
      "doubleSided": true,
      "extensions": {
        "KHR_materials_pbrSpecularGlossiness": {
          "diffuseFactor": [
            1.0,
            1.0,
            1.0,
            0.08075229982549903
          ],
          "glossinessFactor": 0.919247700174501,
          "specularFactor": [
            0.0,
            0.0,
            0.0
          ]
        }
      },
      "name": "Glass_Shell"
    },
    {
      "doubleSided": true,
      "extensions": {
        "KHR_materials_pbrSpecularGlossiness": {
          "diffuseFactor": [
            0.7665614189803083,
            0.6241823982506807,
            0.5886812048168133,
            1.0
          ],
          "glossinessFactor": 0.3416312496579902,
          "specularFactor": [
            0.36652043850208854,
            0.36652043850208854,
            0.36652043850208854
          ]
        }
      },
      "name": "BONDFIRE"
    },
    {
      "doubleSided": true,
      "extensions": {
        "KHR_materials_pbrSpecularGlossiness": {
          "diffuseFactor": [
            1.0,
            1.0,
            1.0,
            1.0
          ],
          "glossinessFactor": 0.0,
          "specularFactor": [
            0.0,
            0.0,
            0.0
          ]
        }
      },
      "name": "Material.003"
    },
    {
      "doubleSided": true,
      "extensions": {
        "KHR_materials_pbrSpecularGlossiness": {
          "diffuseFactor": [
            1.0,
            1.0,
            1.0,
            1.0
          ],
          "diffuseTexture": {
            "index": 2
          },
          "glossinessFactor": 1.0,
          "specularFactor": [
            0.0,
            0.0,
            0.0
          ],
          "specularGlossinessTexture": {
            "index": 3
          }
        }
      },
      "name": "BONFIRE_STICKER.002"
    }
  ],
  "meshes": [
    {
      "name": "Object_0",
      "primitives": [
        {
          "attributes": {
            "NORMAL": 1,
            "POSITION": 0,
            "TEXCOORD_0": 2
          },
          "indices": 3,
          "material": 0,
          "mode": 4
        }
      ]
    },
    {
      "name": "Object_1",
      "primitives": [
        {
          "attributes": {
            "NORMAL": 5,
            "POSITION": 4,
            "TEXCOORD_0": 6
          },
          "indices": 7,
          "material": 1,
          "mode": 4
        }
      ]
    },
    {
      "name": "Object_2",
      "primitives": [
        {
          "attributes": {
            "NORMAL": 9,
            "POSITION": 8,
            "TEXCOORD_0": 10
          },
          "indices": 11,
          "material": 2,
          "mode": 4
        }
      ]
    },
    {
      "name": "Object_3",
      "primitives": [
        {
          "attributes": {
            "NORMAL": 13,
            "POSITION": 12,
            "TEXCOORD_0": 14
          },
          "indices": 15,
          "material": 3,
          "mode": 4
        }
      ]
    },
    {
      "name": "Object_4",
      "primitives": [
        {
          "attributes": {
            "NORMAL": 17,
            "POSITION": 16,
            "TEXCOORD_0": 18
          },
          "indices": 19,
          "material": 4,
          "mode": 4
        }
      ]
    }
  ],
  "nodes": [
    {
      "children": [
        1
      ],
      "matrix": [
        0.13110876083374023,
        0.0,
        0.0,
        0.0,
        0.0,
        2.911199300153827e-17,
        -0.13110876083374023,
        0.0,
        0.0,
        0.13110876083374023,
        2.911199300153827e-17,
        0.0,
        0.0,
        0.0,
        0.0,
        1.0
      ],
      "name": "Sketchfab_model"
    },
    {
      "children": [
        2
      ],
      "name": "root"
    },
    {
      "children": [
        3,
        5
      ],
      "matrix": [
        1.0,
        0.0,
        0.0,
        0.0,
        0.0,
        2.220446049250313e-16,
        1.0,
        0.0,
        0.0,
        -1.0,
        2.220446049250313e-16,
        0.0,
        0.0,
        0.0,
        0.0,
        1.0
      ],
      "name": "GLTF_SceneRootNode"
    },
    {
      "children": [
        4
      ],
      "matrix": [
        0.6552518966149589,
        -1.0787854949364388e-10,
        -0.00209886358974873,
        0.0,
        0.00209886358974873,
        -1.7284912314852454e-13,
        0.655251896614959,
        0.0,
        -1.0787852986751332e-10,
        -0.655255138874054,
        1.7270359583398999e-13,
        0.0,
        0.0,
        1.2340633869171143,
        0.0,
        1.0
      ],
      "name": "acn-aid-to-the-church-in-need-candle-597182.005_0"
    },
    {
      "mesh": 0,
      "name": "Object_4"
    },
    {
      "children": [
        6,
        7,
        11
      ],
      "name": "Cylinder.015_4"
    },
    {
      "mesh": 1,
      "name": "Object_6"
    },
    {
      "children": [
        8,
        9
      ],
      "matrix": [
        0.9869383573532104,
        0.0,
        0.0,
        0.0,
        0.0,
        0.9869384765625,
        0.0,
        0.0,
        0.0,
        0.0,
        0.9869383573532104,
        0.0,
        0.0,
        0.0,
        0.0,
        1.0
      ],
      "name": "Cylinder.016_2"
    },
    {
      "mesh": 2,
      "name": "Object_8"
    },
    {
      "children": [
        10
      ],
      "matrix": [
        0.024468248710036278,
        0.0,
        0.0,
        0.0,
        0.0,
        0.24459263682365417,
        0.0,
        0.0,
        0.0,
        0.0,
        0.024468248710036278,
        0.0,
        0.0,
        0.8850311636924744,
        0.0,
        1.0
      ],
      "name": "Cylinder.017_1"
    },
    {
      "mesh": 3,
      "name": "Object_10"
    },
    {
      "children": [
        12
      ],
      "matrix": [
        1.2310685533790742,
        -8.394208698486846e-09,
        0.25457720870790806,
        0.0,
        -0.10128790271145889,
        -8.441999108341404e-08,
        0.48980170887513563,
        0.0,
        1.56806729858599e-08,
        -0.5672906637191691,
        -9.453297006551939e-08,
        0.0,
        -0.23303669691085815,
        0.1535758078098297,
        1.1269042491912842,
        1.0
      ],
      "name": "Plane.015_3"
    },
    {
      "mesh": 4,
      "name": "Object_12"
    }
  ],
  "samplers": [
    {
      "magFilter": 9729,
      "minFilter": 9987,
      "wrapS": 10497,
      "wrapT": 10497
    }
  ],
  "scene": 0,
  "scenes": [
    {
      "name": "Sketchfab_Scene",
      "nodes": [
        0
      ]
    }
  ],
  "textures": [
    {
      "sampler": 0,
      "source": 0
    },
    {
      "sampler": 0,
      "source": 1
    },
    {
      "sampler": 0,
      "source": 2
    },
    {
      "sampler": 0,
      "source": 3
    }
  ]
}
